<svg width="48" height="40" viewBox="0 0 48 40" fill="none" xmlns="http://www.w3.org/2000/svg">
<path fill-rule="evenodd" clip-rule="evenodd" d="M19.307 0.0527954H28.4133C32.4837 0.0527954 35.7081 0.0527957 38.2305 0.396681C40.826 0.751805 42.9276 1.49801 44.5863 3.17923C46.2428 4.8627 46.9781 6.99569 47.328 9.6299C47.5273 11.1426 47.6092 12.9024 47.6424 14.941C47.6714 15.1119 47.6744 15.2862 47.6513 15.458C47.6668 16.7301 47.6668 18.1057 47.6668 19.5936V19.8453C47.6668 23.9765 47.6668 27.249 47.328 29.809C46.9781 32.4432 46.2428 34.5762 44.5863 36.2597C42.9276 37.9409 40.826 38.6871 38.2305 39.0423C35.7059 39.3861 32.4837 39.3861 28.4133 39.3861H19.307C15.2366 39.3861 12.0122 39.3861 9.4898 39.0423C6.89432 38.6871 4.79269 37.9409 3.13398 36.2597C1.47748 34.5762 0.742244 32.4432 0.392342 29.809C0.0535123 27.2467 0.0535123 23.9765 0.0535123 19.8453V19.5936C0.0535123 18.1057 0.0535123 16.7301 0.0690143 15.458C0.0452703 15.2863 0.0475108 15.112 0.075658 14.941C0.111091 12.9024 0.19303 11.1426 0.392342 9.6299C0.742244 6.99569 1.47748 4.8627 3.13398 3.17923C4.79269 1.49801 6.89432 0.751805 9.4898 0.396681C12.0144 0.0527957 15.2366 0.0527954 19.307 0.0527954ZM3.3798 16.9099C3.37537 17.782 3.37537 18.717 3.37537 19.7195C3.37537 24.0057 3.3798 27.0512 3.68541 29.3618C3.98438 31.6206 4.54688 32.9242 5.48364 33.875C6.4204 34.8257 7.70486 35.3966 9.93271 35.7C12.2093 36.0102 15.2078 36.0147 19.431 36.0147H28.2893C32.5125 36.0147 35.5132 36.0102 37.7898 35.7C40.0154 35.3966 41.2999 34.8257 42.2367 33.875C43.1734 32.9242 43.7359 31.6206 44.0349 29.3595C44.3405 27.049 44.3449 24.0057 44.3449 19.7195C44.3449 18.717 44.3449 17.782 44.3405 16.9099H3.3798ZM44.2874 13.5385H3.43295C3.47724 12.2192 3.55253 11.0796 3.68541 10.0772C3.98438 7.81832 4.54688 6.5147 5.48364 5.56396C6.4204 4.61322 7.70486 4.04232 9.93271 3.73889C12.2093 3.42872 15.2078 3.42422 19.431 3.42422H28.2893C32.5125 3.42422 35.5132 3.42872 37.7898 3.73889C40.0154 4.04232 41.2999 4.61322 42.2367 5.56396C43.1734 6.5147 43.7359 7.81832 44.0349 10.0794C44.1678 11.0796 44.2431 12.2192 44.2874 13.5385ZM8.9118 28.7099C8.9118 28.2629 9.08679 27.8341 9.39827 27.518C9.70976 27.2018 10.1322 27.0242 10.5727 27.0242H19.431C19.8715 27.0242 20.294 27.2018 20.6055 27.518C20.9169 27.8341 21.0919 28.2629 21.0919 28.7099C21.0919 29.157 20.9169 29.5858 20.6055 29.9019C20.294 30.2181 19.8715 30.3957 19.431 30.3957H10.5727C10.1322 30.3957 9.70976 30.2181 9.39827 29.9019C9.08679 29.5858 8.9118 29.157 8.9118 28.7099ZM23.3065 28.7099C23.3065 28.2629 23.4815 27.8341 23.793 27.518C24.1045 27.2018 24.5269 27.0242 24.9674 27.0242H28.2893C28.7298 27.0242 29.1523 27.2018 29.4637 27.518C29.7752 27.8341 29.9502 28.2629 29.9502 28.7099C29.9502 29.157 29.7752 29.5858 29.4637 29.9019C29.1523 30.2181 28.7298 30.3957 28.2893 30.3957H24.9674C24.5269 30.3957 24.1045 30.2181 23.793 29.9019C23.4815 29.5858 23.3065 29.157 23.3065 28.7099Z" fill="#231F20"/>
</svg>
