<svg width="44" height="44" viewBox="0 0 44 44" fill="none" xmlns="http://www.w3.org/2000/svg">
<path d="M5.11133 17.7683C5.11133 10.3355 5.11133 6.61805 7.54298 4.30995C9.97464 2.00185 13.8856 1.99988 21.7097 1.99988H24.8219C32.6459 1.99988 36.5589 1.99988 38.9885 4.30995C41.4181 6.62003 41.4202 10.3355 41.4202 17.7683V25.6525C41.4202 33.0853 41.4202 36.8028 38.9885 39.1109C36.5569 41.419 32.6459 41.4209 24.8219 41.4209H21.7097C13.8856 41.4209 9.97257 41.4209 7.54298 39.1109C5.1134 36.8008 5.11133 33.0853 5.11133 25.6525V17.7683Z" stroke="#231F20" stroke-width="3.42792" stroke-linecap="round" stroke-linejoin="round"/>
<path d="M17.146 21.6584C16.26 20.1919 15.8326 18.9955 15.5754 17.7813C15.1936 15.9876 16.0671 14.2334 17.5111 13.1139C18.1232 12.6408 18.8224 12.8024 19.1834 13.4194L19.9988 14.809C20.6441 15.9088 20.9678 16.4607 20.9034 17.0441C20.8412 17.6276 20.4055 18.1026 19.5341 19.0546L17.146 21.6584ZM17.146 21.6584C19.0135 24.6985 21.6765 27.2283 24.8767 29.0025M24.8767 29.0025C26.4203 29.8441 27.6797 30.2502 28.9578 30.4946C30.8458 30.8573 32.6924 30.0275 33.8709 28.6556C34.3688 28.0741 34.1987 27.4099 33.5493 27.0669L32.0886 26.2923C30.9268 25.6793 30.3479 25.3718 29.7337 25.4329C29.1196 25.4921 28.6196 25.906 27.6175 26.7338L24.8767 29.0025ZM7.18698 9.8833H2M7.18698 21.7096H2M7.18698 33.5359H2" stroke="#231F20" stroke-width="3.42792" stroke-linecap="round" stroke-linejoin="round"/>
</svg>
