<svg width="307" height="82" viewBox="0 0 307 82" fill="none" xmlns="http://www.w3.org/2000/svg">
<path d="M30.7822 63.2169V59.0879M61.508 35.443C58.3886 23.5309 48.9895 18.3257 39.9542 18.8109C36.3538 18.9757 32.8601 20.0845 29.8236 22.026C26.7871 23.9675 24.3145 26.6734 22.654 29.8722C1.44357 33.5178 3.9958 60.6851 22.654 63.2186H24.5571V53.652L36.9458 45.1104L49.3363 53.652V63.2186H61.6105C65.0886 62.9093 68.324 61.3059 70.6764 58.7254C73.0289 56.145 74.3271 52.7755 74.3143 49.2837C74.3014 45.7919 72.9783 42.4321 70.6069 39.8691C68.2354 37.3061 64.9883 35.7266 61.508 35.443Z" stroke="#FF9A62" strokeWidth="1.81969" strokeLinecap="round" strokeLinejoin="round"/>
<path d="M101.192 58.608V60H90.92V58.608L92.696 58.464V48.336C92.696 46.928 92.296 45.84 91.496 45.072C90.728 44.304 89.656 43.904 88.28 43.872L86.696 45.456L86.6 58.464L88.376 58.608V60H78.056V58.608L79.832 58.464L79.592 29.712L77.768 30.096L77.288 28.704L86.168 26.016L86.84 27.168L86.696 43.152L90.584 37.584C93.624 37.584 95.864 38.304 97.304 39.744C98.744 41.184 99.464 43.408 99.464 46.416V58.464L101.192 58.608ZM113.611 37.68C116.811 37.68 119.387 38.624 121.339 40.512C123.291 42.4 124.267 45.088 124.267 48.576C124.267 50.08 123.995 51.632 123.451 53.232C122.939 54.832 122.171 56.24 121.147 57.456C120.123 58.448 118.923 59.248 117.547 59.856C116.203 60.432 114.779 60.72 113.275 60.72C110.075 60.72 107.499 59.776 105.547 57.888C103.595 56 102.619 53.312 102.619 49.824C102.619 48.352 102.891 46.816 103.435 45.216C103.979 43.616 104.763 42.208 105.787 40.992C106.811 40 107.995 39.2 109.339 38.592C110.715 37.984 112.139 37.68 113.611 37.68ZM109.531 47.52C109.531 50.56 110.123 52.832 111.307 54.336C112.523 55.84 114.299 56.736 116.635 57.024C116.859 56.064 117.035 54.992 117.163 53.808C117.291 52.624 117.355 51.648 117.355 50.88C117.355 47.808 116.747 45.536 115.531 44.064C114.347 42.56 112.603 41.664 110.299 41.376C110.075 42.368 109.883 43.456 109.723 44.64C109.595 45.824 109.531 46.784 109.531 47.52ZM161.351 58.608V60H151.079V58.608L152.855 58.464V48.336C152.855 46.928 152.487 45.84 151.751 45.072C151.047 44.272 150.055 43.856 148.775 43.824L146.999 45.6V46.416V58.464L148.727 58.608V60H138.455V58.608L140.231 58.464V48.336C140.231 46.928 139.863 45.84 139.127 45.072C138.423 44.304 137.431 43.904 136.151 43.872L134.567 45.456L134.375 58.464L136.151 58.608V60H125.831V58.608L127.607 58.464L127.463 41.28L125.639 41.712L125.159 40.272L132.743 37.92L134.423 43.296L138.407 37.584C140.871 37.584 142.775 38.08 144.119 39.072C145.495 40.064 146.375 41.6 146.759 43.68L151.031 37.536C153.975 37.536 156.135 38.256 157.511 39.696C158.919 41.136 159.623 43.376 159.623 46.416V58.464L161.351 58.608ZM173.894 37.68C176.71 37.68 178.918 38.704 180.518 40.752C182.15 42.768 182.95 45.504 182.918 48.96L169.67 49.392C169.894 51.28 170.55 52.72 171.638 53.712C172.726 54.704 174.166 55.2 175.958 55.2C178.454 55.2 180.486 54.512 182.054 53.136L182.918 53.904C181.798 56.048 180.278 57.728 178.358 58.944C176.47 60.128 174.454 60.72 172.31 60.72C169.398 60.72 167.078 59.76 165.35 57.84C163.654 55.888 162.806 53.264 162.806 49.968C162.806 48.016 163.19 46.08 163.958 44.16C164.758 42.24 165.766 40.64 166.982 39.36C167.814 38.88 168.886 38.48 170.198 38.16C171.51 37.84 172.742 37.68 173.894 37.68ZM175.814 47.376C175.782 45.136 175.462 43.36 174.854 42.048C174.246 40.736 173.382 39.952 172.262 39.696C171.462 40.528 170.806 41.696 170.294 43.2C169.814 44.672 169.574 46.192 169.574 47.76V47.904L175.814 47.376Z" fill="#231F20"/>
<path d="M197.566 37.68C199.422 37.68 201.054 38.112 202.462 38.976C203.902 39.808 205.022 40.976 205.822 42.48C206.622 43.952 207.022 45.632 207.022 47.52C207.022 49.152 206.75 50.88 206.206 52.704C205.662 54.528 205.006 55.952 204.238 56.976C203.63 57.84 202.526 58.688 200.926 59.52C199.326 60.32 197.982 60.72 196.894 60.72C195.454 60.72 193.582 60.464 191.278 59.952C188.974 59.408 187.262 58.832 186.142 58.224L185.998 29.712L184.174 30.096L183.694 28.704L192.574 26.016L193.246 27.168L193.054 42.96L197.566 37.68ZM198.91 57.072C199.71 55.248 200.11 53.024 200.11 50.4C200.11 48.928 199.87 47.648 199.39 46.56C198.91 45.472 198.27 44.64 197.47 44.064C196.702 43.488 195.87 43.2 194.974 43.2L193.054 45.12L192.91 55.056C195.086 56.048 197.086 56.72 198.91 57.072ZM232.938 56.784L226.266 60.576C225.242 60.032 224.49 59.296 224.01 58.368C223.53 57.408 223.29 56.192 223.29 54.72L219.162 60.72C216.154 60.72 213.93 60 212.49 58.56C211.05 57.088 210.33 54.832 210.33 51.792V39.936L208.554 39.792V38.4H217.098V49.872C217.098 51.312 217.466 52.432 218.202 53.232C218.97 54 219.978 54.4 221.226 54.432L223.29 52.512V39.936L221.562 39.792V38.4H230.058V51.936C230.058 53.12 230.122 54 230.25 54.576C230.41 55.152 230.65 55.648 230.97 56.064L232.41 55.344L232.938 56.784ZM257.536 56.688L250.528 60.48C249.664 59.968 249.024 59.296 248.608 58.464C248.224 57.6 248 56.496 247.936 55.152L243.184 60.72C241.328 60.72 239.68 60.304 238.24 59.472C236.832 58.608 235.728 57.44 234.928 55.968C234.128 54.464 233.728 52.768 233.728 50.88C233.728 49.248 234 47.52 234.544 45.696C235.088 43.872 235.744 42.448 236.512 41.424C237.12 40.56 238.224 39.728 239.824 38.928C241.424 38.096 242.768 37.68 243.856 37.68C244.816 37.68 246.128 37.84 247.792 38.16L247.696 29.712L245.872 30.096L245.392 28.704L254.272 26.016L254.944 27.168L254.656 52.032C254.656 53.184 254.72 54.048 254.848 54.624C254.976 55.168 255.2 55.648 255.52 56.064L256.96 55.392L257.536 56.688ZM240.64 48C240.64 49.472 240.88 50.752 241.36 51.84C241.84 52.928 242.464 53.76 243.232 54.336C244.032 54.912 244.88 55.2 245.776 55.2L247.936 53.04L247.84 43.344C245.76 42.352 243.76 41.68 241.84 41.328C241.04 43.152 240.64 45.376 240.64 48ZM282.614 56.688L275.606 60.48C274.742 59.968 274.102 59.296 273.686 58.464C273.302 57.6 273.078 56.496 273.014 55.152L268.262 60.72C266.406 60.72 264.758 60.304 263.318 59.472C261.91 58.608 260.806 57.44 260.006 55.968C259.206 54.464 258.806 52.768 258.806 50.88C258.806 49.248 259.078 47.52 259.622 45.696C260.166 43.872 260.822 42.448 261.59 41.424C262.198 40.56 263.302 39.728 264.902 38.928C266.502 38.096 267.846 37.68 268.934 37.68C269.894 37.68 271.206 37.84 272.87 38.16L272.774 29.712L270.95 30.096L270.47 28.704L279.35 26.016L280.022 27.168L279.734 52.032C279.734 53.184 279.798 54.048 279.926 54.624C280.054 55.168 280.278 55.648 280.598 56.064L282.038 55.392L282.614 56.688ZM265.718 48C265.718 49.472 265.958 50.752 266.438 51.84C266.918 52.928 267.542 53.76 268.31 54.336C269.11 54.912 269.958 55.2 270.854 55.2L273.014 53.04L272.918 43.344C270.838 42.352 268.838 41.68 266.918 41.328C266.118 43.152 265.718 45.376 265.718 48ZM306.348 38.4V39.936L304.956 39.984L298.86 54.144C297.196 58.08 295.468 61.68 293.676 64.944C291.916 68.208 290.316 70.8 288.876 72.72L283.212 67.344C287.18 65.072 290.732 62.576 293.868 59.856L291.228 60L283.836 39.984L282.444 39.936V38.4H293.82V39.936L291.804 39.984L296.172 54.672L300.108 39.984L298.092 39.936V38.4H306.348Z" fill="#EEB785"/>
</svg>
