<svg width="17" height="17" viewBox="0 0 17 17" fill="none" xmlns="http://www.w3.org/2000/svg">
<path d="M6.91491 1.87842C7.41383 0.342897 9.58617 0.3429 10.0851 1.87842L10.9322 4.48565C11.1554 5.17235 11.7953 5.63729 12.5173 5.63729H15.2587C16.8733 5.63729 17.5446 7.70331 16.2384 8.65232L14.0205 10.2637C13.4364 10.6881 13.192 11.4404 13.4151 12.1271L14.2622 14.7343C14.7611 16.2698 13.0037 17.5467 11.6975 16.5977L9.47964 14.9863C8.8955 14.5619 8.1045 14.5619 7.52036 14.9863L5.30251 16.5977C3.99632 17.5467 2.23886 16.2698 2.73778 14.7343L3.58492 12.1271C3.80804 11.4404 3.56361 10.6881 2.97947 10.2637L0.761621 8.65231C-0.544569 7.70331 0.126727 5.63729 1.74127 5.63729H4.48267C5.20471 5.63729 5.84464 5.17235 6.06777 4.48565L6.91491 1.87842Z" fill="#FFD335"/>
</svg>
