<svg width="59" height="59" viewBox="0 0 59 59" fill="none" xmlns="http://www.w3.org/2000/svg">
<path fill-rule="evenodd" clip-rule="evenodd" d="M44.4314 6.26069C43.0756 5.49929 41.6314 5.4256 40.1061 5.61472C38.657 5.79648 36.891 6.25332 34.7714 6.80595L29.8124 8.09297C27.6928 8.6456 25.9293 9.10244 24.5808 9.65016C23.1587 10.2249 21.9307 10.9961 21.1349 12.3347C20.3342 13.6807 20.2556 15.12 20.4545 16.6231C20.6436 18.0403 21.1177 19.7596 21.6826 21.8081L23.0163 26.6319C23.5812 28.6828 24.0577 30.3996 24.625 31.7161C25.2268 33.1161 26.03 34.3074 27.3956 35.0737C28.7514 35.8326 30.1956 35.9088 31.7233 35.7172C33.1724 35.5379 34.9384 35.0786 37.058 34.526L42.017 33.2389C44.1366 32.6888 45.9001 32.2295 47.2486 31.6817C48.6707 31.107 49.8987 30.3358 50.6945 28.9972C51.4952 27.6512 51.5738 26.2119 51.3749 24.7112C51.1858 23.294 50.7117 21.5723 50.1468 19.5238L48.8131 14.7C48.2482 12.6516 47.7717 10.9323 47.2043 9.61578C46.6026 8.21578 45.7945 7.02455 44.4314 6.26069ZM35.5794 10.4017C37.8514 9.81227 39.3815 9.41929 40.5654 9.27192C41.6977 9.12946 42.2405 9.25472 42.6359 9.47578C43.0215 9.69192 43.3924 10.0677 43.8222 11.0723C44.2766 12.1284 44.6893 13.5996 45.2984 15.8053L46.5608 20.381C47.1724 22.5867 47.5752 24.0603 47.725 25.1951C47.8675 26.2733 47.7398 26.7621 47.5286 27.1133C47.3149 27.4744 46.9268 27.8403 45.8707 28.2677C44.7703 28.7123 43.2426 29.1151 40.9707 29.7045L36.2549 30.9302C33.9829 31.5196 32.4528 31.9126 31.2689 32.06C30.1342 32.2049 29.5938 32.0796 29.1984 31.8586C28.8128 31.6424 28.4419 31.2642 28.0121 30.2621C27.5577 29.206 27.145 27.7323 26.5359 25.5267L25.2735 20.9533C24.6619 18.7428 24.2591 17.2716 24.1093 16.1393C23.9668 15.0586 24.0945 14.5723 24.3058 14.2186C24.5194 13.8575 24.9075 13.4916 25.9636 13.0642C27.064 12.6196 28.5917 12.2193 30.8636 11.6274L35.5794 10.4017Z" fill="#231F20"/>
<path fill-rule="evenodd" clip-rule="evenodd" d="M7.85984 11.6068C7.39451 11.4927 6.90305 11.5644 6.48971 11.8067C6.07637 12.049 5.77369 12.4428 5.64587 12.9045C5.51805 13.3662 5.57516 13.8596 5.80508 14.2799C6.035 14.7003 6.41963 15.0145 6.87738 15.1559L11.0602 16.3177C12.1065 16.6075 12.8851 17.3984 13.1504 18.3588L17.9448 35.7065C17.7592 35.7432 17.5749 35.7858 17.3921 35.8342C12.5363 37.0942 9.56932 41.9795 10.9005 46.8058C12.2269 51.6075 17.2718 54.3756 22.1079 53.118C26.3423 52.0202 29.1398 48.1665 28.9041 44.0009L49.5848 38.6268C49.8189 38.566 50.0388 38.4597 50.2319 38.3139C50.425 38.1681 50.5875 37.9857 50.71 37.7772C50.8326 37.5686 50.9129 37.3379 50.9464 37.0983C50.9798 36.8587 50.9657 36.6148 50.9049 36.3807C50.8441 36.1465 50.7378 35.9266 50.592 35.7335C50.4462 35.5405 50.2639 35.378 50.0553 35.2554C49.8467 35.1328 49.616 35.0525 49.3764 35.0191C49.1368 34.9856 48.893 34.9997 48.6588 35.0605L27.9339 40.4468C27.3139 39.262 26.4413 38.2278 25.3777 37.4171C24.3142 36.6065 23.0856 36.0393 21.7788 35.7556L16.7019 17.3763C16.3903 16.2707 15.7976 15.2646 14.9814 14.4563C14.1653 13.6479 13.1537 13.0647 12.0451 12.7637L7.85984 11.6068ZM18.3205 39.3981C21.2974 38.6268 24.2841 40.3535 25.0504 43.1289C25.8118 45.8798 24.1416 48.7854 21.1844 49.5542C18.2076 50.3279 15.2209 48.5988 14.4546 45.8233C13.6932 43.0724 15.3634 40.1668 18.3205 39.3981Z" fill="#231F20"/>
</svg>
